<svg width="41" height="41" viewBox="0 0 41 41" fill="none" xmlns="http://www.w3.org/2000/svg">
<path d="M17.129 35.7609C17.8489 35.7609 18.4181 35.4427 18.8199 34.8233L34.6402 9.91266C34.9416 9.42718 35.0587 9.05888 35.0587 8.67383C35.0587 7.75306 34.456 7.15039 33.5353 7.15039C32.8656 7.15039 32.4973 7.36802 32.0956 8.00419L17.0621 31.9606L9.26074 21.7486C8.84221 21.1626 8.4237 20.9283 7.82101 20.9283C6.86677 20.9283 6.21387 21.5812 6.21387 22.5019C6.21387 22.887 6.38128 23.3223 6.69936 23.724L15.388 34.7899C15.8902 35.4427 16.4092 35.7609 17.129 35.7609Z" fill="#34C759"/>
</svg>
