<svg width="33" height="32" viewBox="0 0 33 32" fill="none" xmlns="http://www.w3.org/2000/svg">
<path d="M16.6339 28.5723C17.3303 28.5723 17.8258 28.0901 17.8258 27.3937L17.8258 9.75535L17.6919 5.76427L16.9419 6.03204L21.7365 11.2955L24.7901 14.2955C24.991 14.5098 25.3124 14.617 25.6339 14.617C26.3035 14.617 26.7856 14.108 26.7856 13.4517C26.7856 13.1303 26.6651 12.8491 26.4106 12.5812L17.5312 3.6749C17.2767 3.40712 16.9687 3.27318 16.6339 3.27318C16.299 3.27318 15.991 3.40712 15.7365 3.6749L6.8437 12.5812C6.58919 12.8491 6.4821 13.1303 6.4821 13.4517C6.4821 14.108 6.96416 14.617 7.63388 14.617C7.95525 14.617 8.26336 14.5098 8.47764 14.2955L11.5311 11.2955L16.3392 6.03204L15.5758 5.76427L15.4419 9.75535L15.4419 27.3937C15.4419 28.0901 15.9374 28.5723 16.6339 28.5723Z" fill="white"/>
</svg>
