<svg width="29" height="28" viewBox="0 0 29 28" fill="none" xmlns="http://www.w3.org/2000/svg">
<path d="M0.0136719 13.2191C0.0136719 17.1021 2.67324 19.6766 6.6626 19.6766C10.5881 19.6766 13.2158 17.3681 13.2158 13.8894C13.2158 12.4319 12.7052 11.2617 11.8541 10.5383C11.4605 10.2085 11.2371 10.1021 10.8647 10.1021C10.3754 10.1021 10.035 10.4 10.035 10.8362C10.035 11.368 10.3434 11.5064 10.8328 11.9532C11.2797 12.3893 11.5349 13.0489 11.5349 13.8574C11.5349 16.3255 9.59877 17.9745 6.69452 17.9745C3.71579 17.9745 1.72644 16.0702 1.72644 13.2085C1.72644 11.5702 2.55622 10.017 3.91792 9.14468L3.06686 7.66597C1.17324 8.84681 0.0136719 10.9638 0.0136719 13.2191ZM2.88601 7.67661C2.88601 10.0489 4.53494 11.7404 7.14132 11.7404C7.59877 11.7404 7.99238 11.3468 7.99238 10.8894C7.99238 10.4213 7.59877 10.0277 7.14132 10.0277C5.56686 10.0277 4.59877 9.03831 4.59877 7.67661C4.59877 6.16597 5.84345 5.10214 7.51366 5.10214C8.29026 5.10214 9.12 5.34682 9.886 5.8681L10.886 4.47448C9.82218 3.7298 8.64132 3.38938 7.5243 3.38938C4.94983 3.38938 2.88601 5.15533 2.88601 7.67661ZM8.55621 7.38937C8.53494 7.94256 8.90728 8.3149 9.3966 8.3149C9.86475 8.3149 10.2264 8.00639 10.2477 7.46384C10.3222 5.44256 11.7903 3.96384 13.8541 3.96384C15.0988 3.96384 16.1839 4.62342 16.6201 5.60214C16.7051 5.75107 16.8221 5.76171 17.0243 5.70852C17.3753 5.61278 17.769 5.55959 18.152 5.55959C20.0562 5.58086 21.8647 7.0064 21.8647 9.30426C21.8647 14.2936 14.8434 13.6128 14.8434 18.4851C14.8434 20.8043 16.6839 22.251 19.0669 22.251C19.3221 22.251 19.5987 22.2404 19.8753 22.2298C20.12 24.0383 21.2583 25.7936 23.0988 25.7936C25.7583 25.7936 27.0562 22.5596 27.0562 19.4106C27.0562 18.0383 26.9817 17.1128 26.886 16.2404L25.1732 16.7192C25.2689 17.5702 25.3541 18.3681 25.3541 19.3894C25.3541 21.9744 24.3753 24.0809 23.0988 24.0809C21.7796 24.0809 21.2477 22.3256 21.2477 20.9213C21.2477 20.8149 21.1838 20.7404 21.0349 20.7511C20.737 20.7511 20.3328 20.7511 20.0668 20.7511C17.9498 20.7511 16.5562 20.1021 16.5562 18.4532C16.5562 14.5596 23.5774 15.4425 23.5774 9.30426C23.5774 6.02767 21.152 3.84682 18.3754 3.84682C18.1626 3.84682 17.8647 3.87873 17.5668 3.95321C16.7157 2.90002 15.354 2.26172 13.8647 2.26172C10.8435 2.26172 8.68387 4.37873 8.55621 7.38937ZM21.0668 17.8255C21.0668 18.3043 21.4498 18.6447 21.9285 18.6766C25.5775 18.9106 28.0137 16.7617 28.0137 13.3043C28.0137 10.4851 26.003 8.32554 22.9817 7.92129L22.7158 9.62341C24.8647 9.65532 26.3008 11.1234 26.3008 13.3043C26.3008 15.7085 24.5455 17.1766 21.9285 16.9744C21.4498 16.932 21.0668 17.3574 21.0668 17.8255ZM15.5988 19.2085C14.9711 19.4319 14.2371 19.5382 13.5455 19.5382C11.7477 19.5382 9.91795 18.8362 9.21577 17.7511L7.80089 18.9C8.91791 20.2936 10.9392 21.2511 13.3647 21.2511C14.2371 21.2511 15.2158 21.1234 16.1839 20.8361L15.5988 19.2085ZM12.1838 11.6979L12.7584 13.3149C15.4392 12.7937 16.6413 11.1128 16.6413 8.62341C16.6413 8.15533 16.2477 7.77235 15.7796 7.77235C15.3116 7.77235 14.9286 8.15533 14.9286 8.62341C14.9286 10.3681 14.1839 11.4106 12.1838 11.6979Z" fill="#5856D6"/>
</svg>
