<svg width="29" height="28" viewBox="0 0 29 28" fill="none" xmlns="http://www.w3.org/2000/svg">
<path d="M23.2148 24.5977C25.6641 24.5977 26.8945 23.3906 26.8945 20.9648V6.65625C26.8945 4.23047 25.6641 3.02344 23.2148 3.02344H13.0312C11.6602 3.02344 10.4766 3.375 9.51562 4.39453L2.61328 11.5664C1.85156 12.3516 1.5 13.0547 1.5 13.793C1.5 14.5195 1.83984 15.2344 2.61328 16.0195L9.52734 23.1562C10.5 24.1641 11.6719 24.5859 13.043 24.5859L23.2148 24.5977ZM12.4102 18.7266C11.8711 18.7266 11.4375 18.293 11.4375 17.7422C11.4375 17.4844 11.543 17.25 11.7188 17.0625L14.9766 13.8164L11.7188 10.5586C11.543 10.3711 11.4375 10.1367 11.4375 9.87891C11.4375 9.33984 11.8711 8.91797 12.4102 8.91797C12.6797 8.91797 12.8906 9.02344 13.0781 9.19922L16.3477 12.457L19.6406 9.1875C19.8398 8.98828 20.0508 8.89453 20.3086 8.89453C20.8477 8.89453 21.2695 9.32812 21.2695 9.85547C21.2695 10.125 21.1992 10.3359 20.9883 10.5469L17.7305 13.8164L20.9766 17.0508C21.1758 17.2383 21.2578 17.4727 21.2578 17.7422C21.2578 18.293 20.8359 18.7266 20.2852 18.7266C20.0156 18.7266 19.7695 18.6211 19.5938 18.4453L16.3477 15.1758L13.1133 18.4453C12.9258 18.6211 12.6797 18.7266 12.4102 18.7266Z" fill="#5856D6"/>
</svg>
