<svg width="41" height="41" viewBox="0 0 41 41" fill="none" xmlns="http://www.w3.org/2000/svg">
<path d="M9.50449 30.9486C10.0737 31.5345 11.0614 31.5177 11.6306 30.9486L20.202 22.3604L28.7901 30.9486C29.3594 31.5177 30.3304 31.5345 30.8996 30.9486C31.5023 30.3626 31.4856 29.3916 30.8996 28.8225L22.3281 20.2343L30.8996 11.6628C31.4856 11.0936 31.5023 10.1059 30.8996 9.53671C30.3304 8.95078 29.3594 8.96752 28.7901 9.53671L20.202 18.1249L11.6306 9.53671C11.0614 8.96752 10.0737 8.95078 9.50449 9.53671C8.91855 10.1059 8.93529 11.0936 9.50449 11.6628L18.0927 20.2343L9.50449 28.8225C8.93529 29.3916 8.91855 30.3626 9.50449 30.9486Z" fill="#FF2D55"/>
</svg>
