<svg width="35" height="36" viewBox="0 0 35 36" fill="none" xmlns="http://www.w3.org/2000/svg">
<path d="M17.933 35.0091C27.2746 35.0091 35.0089 27.2581 35.0089 17.9333C35.0089 8.59179 27.2579 0.857422 17.9163 0.857422C8.59155 0.857422 0.857178 8.59179 0.857178 17.9333C0.857178 27.2581 8.60829 35.0091 17.933 35.0091ZM17.8996 13.6476C16.7445 13.6476 15.8405 12.8106 15.8405 11.7391C15.8405 10.517 16.7445 9.64648 17.8996 9.64648C19.1719 9.64648 20.0257 10.5003 20.0257 11.7391C20.0257 12.8106 19.1552 13.6476 17.8996 13.6476ZM11.2199 19.4066C10.2322 19.4066 9.57928 18.8876 9.57928 17.9669C9.57928 17.0293 10.1987 16.5103 11.2199 16.5103H24.663C25.6675 16.5103 26.2869 17.0293 26.2869 17.9669C26.2869 18.8876 25.634 19.4066 24.663 19.4066H11.2199ZM17.8996 26.2536C16.7445 26.2536 15.8405 25.3999 15.8405 24.3284C15.8405 23.1063 16.7445 22.2526 17.8996 22.2526C19.1719 22.2526 20.0257 23.1063 20.0257 24.3284C20.0257 25.3999 19.1552 26.2536 17.8996 26.2536Z" fill="#32ADE6"/>
</svg>
