<svg width="29" height="28" viewBox="0 0 29 28" fill="none" xmlns="http://www.w3.org/2000/svg">
<path d="M14.0177 22.0539C21.606 22.0539 26.8464 15.9213 26.8464 14.0055C26.8464 12.0802 21.5966 5.95703 14.0177 5.95703C6.53279 5.95703 1.17969 12.0802 1.17969 14.0055C1.17969 15.9213 6.5234 22.0539 14.0177 22.0539ZM14.0177 20.5701C7.8288 20.5701 2.82318 15.3296 2.82318 14.0055C2.82318 12.8879 7.8288 7.44087 14.0177 7.44087C20.1785 7.44087 25.2029 12.8879 25.2029 14.0055C25.2029 15.3296 20.1785 20.5701 14.0177 20.5701ZM14.0177 19.2647C16.9385 19.2647 19.2864 16.8698 19.2864 14.0055C19.2864 11.066 16.9385 8.74628 14.0177 8.74628C11.0783 8.74628 8.72099 11.066 8.73038 14.0055C8.74916 16.8698 11.0783 19.2647 14.0177 19.2647ZM14.0177 15.7523C13.041 15.7523 12.2521 14.9634 12.2521 14.0055C12.2521 13.0382 13.041 12.2587 14.0177 12.2587C14.9851 12.2587 15.7739 13.0382 15.7739 14.0055C15.7739 14.9634 14.9851 15.7523 14.0177 15.7523Z" fill="white"/>
</svg>
