<svg width="36" height="36" viewBox="0 0 36 36" fill="none" xmlns="http://www.w3.org/2000/svg">
<path fill-rule="evenodd" clip-rule="evenodd" d="M35.5 18C35.5 27.665 27.665 35.5 18 35.5C8.33502 35.5 0.5 27.665 0.5 18C0.5 8.33502 8.33502 0.5 18 0.5C27.665 0.5 35.5 8.33502 35.5 18ZM25.2515 24.5859C25.8257 24.5859 26.2358 24.1758 26.2358 23.5312C26.2358 22.9922 25.9663 22.6875 25.4741 22.4531L12.853 16.8398V16.7109L25.4741 11.1445C25.9663 10.9102 26.2358 10.6055 26.2358 10.0664C26.2358 9.44531 25.814 9.02344 25.2046 9.02344C24.8882 9.02344 24.689 9.10547 24.4546 9.22266L11.2827 15.2812C10.603 15.5859 10.0874 16.125 10.0874 16.8633C10.0874 17.6133 10.603 18.1289 11.2827 18.4453L24.4546 24.3633L24.4759 24.3735C24.713 24.4865 24.9215 24.5859 25.2515 24.5859ZM10.1791 19.9339C9.67663 19.7047 9.0835 19.9263 8.85432 20.4288C8.62514 20.9313 8.84671 21.5244 9.3492 21.7536L22.7933 27.8852C23.2957 28.1144 23.8889 27.8928 24.1181 27.3903C24.3472 26.8878 24.1257 26.2947 23.6232 26.0655L10.1791 19.9339Z" fill="#5856D6"/>
</svg>
