<svg width="34" height="34" viewBox="0 0 34 34" fill="none" xmlns="http://www.w3.org/2000/svg">
<g clip-path="url(#clip0_70815_15796)">
<path d="M26.2554 17.7227C25.3489 17.7227 24.6113 18.4602 24.6113 19.3668C24.6113 20.2733 25.3489 21.0109 26.2554 21.0109C27.162 21.0109 27.8995 20.2733 27.8995 19.3668C27.8995 18.4602 27.162 17.7227 26.2554 17.7227Z" fill="#5856D6"/>
<path d="M7.3574 21.0092C8.01687 21.0092 8.55147 20.4746 8.55147 19.8152C8.55147 19.1557 8.01687 18.6211 7.3574 18.6211C6.69793 18.6211 6.16333 19.1557 6.16333 19.8152C6.16333 20.4746 6.69793 21.0092 7.3574 21.0092Z" fill="#5856D6"/>
<path d="M32.8921 0H1.10787C0.495993 0 0 0.495993 0 1.10787V32.8921C0 33.5039 0.495993 34 1.10787 34H32.8922C33.504 34 34 33.504 34 32.8921V1.10787C34 0.495993 33.504 0 32.8921 0ZM10.7108 22.0361C10.7108 22.9803 9.57173 23.465 8.89119 22.8101C6.79167 23.8001 4.38137 22.2528 4.38137 19.9463C4.38137 17.793 6.50447 16.2509 8.56107 16.9494V16.6136C8.56107 16.0566 8.10787 15.6035 7.55088 15.6035H6.60941C6.0158 15.6035 5.53452 15.1222 5.53452 14.5286C5.53452 13.935 6.0158 13.4537 6.60941 13.4537H7.55088C9.29327 13.4537 10.7108 14.8713 10.7108 16.6136V22.0361ZM19.3336 20.2859C20.0128 20.9651 19.5225 22.1208 18.5736 22.1208C18.2984 22.1208 18.0234 22.0159 17.8136 21.806L16.5969 20.5893L15.3803 21.806C15.1703 22.0159 14.8953 22.1208 14.6202 22.1208C13.6711 22.1208 13.1811 20.9649 13.8601 20.2859L15.0768 19.0693L13.8601 17.8527C13.4404 17.4329 13.4404 16.7523 13.8601 16.3326C14.2799 15.9128 14.9604 15.9128 15.3802 16.3326L16.5969 17.5492L17.8135 16.3326C18.2332 15.9128 18.9138 15.9128 19.3336 16.3326C19.7534 16.7524 19.7534 17.4329 19.3336 17.8527L18.1169 19.0693L19.3336 20.2859ZM24.4359 22.5386C23.8003 23.327 22.5241 22.8746 22.5241 21.8647V11.9638C22.5241 11.3702 23.0053 10.8889 23.599 10.8889C24.1927 10.8889 24.6739 11.3702 24.6739 11.9638V16.1324C26.998 15.1322 29.6186 16.8413 29.6186 19.3924C29.6186 22.0691 26.7663 23.7549 24.4359 22.5386Z" fill="#5856D6"/>
</g>
<defs>
<clipPath id="clip0_70815_15796">
<rect width="34" height="34" rx="17" fill="white"/>
</clipPath>
</defs>
</svg>
