<svg width="35" height="35" viewBox="0 0 35 35" fill="none" xmlns="http://www.w3.org/2000/svg">
<path d="M17.933 35.0091C27.2746 35.0091 35.0089 27.2581 35.0089 17.9333C35.0089 8.59179 27.2579 0.857422 17.9163 0.857422C8.59155 0.857422 0.857178 8.59179 0.857178 17.9333C0.857178 27.2581 8.60829 35.0091 17.933 35.0091ZM12.3081 24.9646C11.538 24.9646 10.9353 24.3451 10.9353 23.575C10.9353 23.2067 11.0692 22.8551 11.3371 22.6041L15.9743 17.95L11.3371 13.3128C11.0692 13.0449 10.9353 12.7101 10.9353 12.3418C10.9353 11.555 11.538 10.969 12.3081 10.969C12.6931 10.969 12.9944 11.103 13.2623 11.3541L17.933 16.0081L22.6373 11.3373C22.9219 11.0527 23.2232 10.9356 23.5916 10.9356C24.3616 10.9356 24.981 11.5382 24.981 12.3083C24.981 12.6934 24.8639 12.9947 24.5626 13.296L19.9085 17.95L24.5458 22.5873C24.8303 22.8384 24.9643 23.19 24.9643 23.575C24.9643 24.3451 24.3449 24.9646 23.558 24.9646C23.173 24.9646 22.8215 24.8306 22.5703 24.5629L17.933 19.9087L13.3125 24.5629C13.0447 24.8306 12.6931 24.9646 12.3081 24.9646Z" fill="#34C759"/>
</svg>
