<svg width="15" height="20" viewBox="0 0 15 20" fill="none" xmlns="http://www.w3.org/2000/svg">
<g clip-path="url(#clip0_70815_25644)">
<path d="M2.05859 19.0898H4.73047C5.75 19.0898 6.28906 18.5508 6.28906 17.5195V1.55859C6.28906 0.492188 5.75 0 4.73047 0H2.05859C1.03906 0 0.5 0.539062 0.5 1.55859V17.5195C0.5 18.5508 1.03906 19.0898 2.05859 19.0898ZM10.5781 19.0898H13.2383C14.2695 19.0898 14.7969 18.5508 14.7969 17.5195V1.55859C14.7969 0.492188 14.2695 0 13.2383 0H10.5781C9.54688 0 9.00781 0.539062 9.00781 1.55859V17.5195C9.00781 18.5508 9.54688 19.0898 10.5781 19.0898Z" fill="#5856D6"/>
</g>
<defs>
<clipPath id="clip0_70815_25644">
<rect width="14.2969" height="19.0898" fill="white" transform="translate(0.5)"/>
</clipPath>
</defs>
</svg>
