<svg width="36" height="36" viewBox="0 0 36 36" fill="none" xmlns="http://www.w3.org/2000/svg">
<path d="M17.9994 0.857422C8.57085 0.857422 0.856567 8.57171 0.856567 18.0003C0.856567 27.4289 8.57085 35.1431 17.9994 35.1431C27.428 35.1431 35.1423 27.4289 35.1423 18.0003C35.1423 8.57171 27.428 0.857422 17.9994 0.857422ZM12.5651 9.51456C14.2451 9.51456 15.5994 10.8688 15.5994 12.566C15.5994 14.246 14.2451 15.6003 12.5651 15.6003C10.868 15.6003 9.51371 14.246 9.51371 12.566C9.51371 10.8688 10.868 9.51456 12.5651 9.51456ZM23.5194 26.5717C21.8394 26.5717 20.4851 25.2003 20.4851 23.5203C20.4851 21.8403 21.8394 20.486 23.5194 20.486C25.1994 20.486 26.5709 21.8403 26.5709 23.5203C26.5709 25.2003 25.1994 26.5717 23.5194 26.5717ZM13.2851 25.3374C12.5751 26.0475 11.4238 26.0475 10.7137 25.3374C10.0036 24.6273 10.0036 23.4761 10.7137 22.766L22.7651 10.7146C23.4752 10.0045 24.6265 10.0045 25.3366 10.7146C26.0466 11.4246 26.0466 12.5759 25.3366 13.286L13.2851 25.3374Z" fill="#FFCC00"/>
</svg>
