<svg width="29" height="28" viewBox="0 0 29 28" fill="none" xmlns="http://www.w3.org/2000/svg">
<g clip-path="url(#clip0_70414_47253)">
<path d="M5.00771 25.999C5.57408 25.999 6.0555 25.7725 6.62187 25.4467L23.1315 15.9034C24.3068 15.2096 24.7175 14.7565 24.7175 14.0061C24.7175 13.2557 24.3068 12.8026 23.1315 12.1229L6.62187 2.5654C6.0555 2.23973 5.57408 2.02734 5.00771 2.02734C3.95992 2.02734 3.30859 2.82026 3.30859 4.05212V23.9601C3.30859 25.1919 3.95992 25.999 5.00771 25.999ZM5.72984 23.2946C5.64487 23.2946 5.58824 23.2379 5.58824 23.1247V4.88751C5.58824 4.77425 5.64487 4.71761 5.72984 4.71761C5.78647 4.71761 5.84311 4.74593 5.89974 4.7884L21.5741 13.8503C21.6449 13.8928 21.7016 13.9353 21.7016 14.0061C21.7016 14.0769 21.6449 14.1336 21.5741 14.1618L5.89974 23.2379C5.84311 23.2663 5.78647 23.2946 5.72984 23.2946Z" fill="white"/>
</g>
<defs>
<clipPath id="clip0_70414_47253">
<rect width="21.4089" height="24" fill="white" transform="translate(3.30908 2)"/>
</clipPath>
</defs>
</svg>
