<svg width="35" height="36" viewBox="0 0 35 36" fill="none" xmlns="http://www.w3.org/2000/svg">
<path d="M17.933 35.0091C27.2746 35.0091 35.0089 27.2581 35.0089 17.9333C35.0089 8.59179 27.2579 0.857422 17.9163 0.857422C8.59155 0.857422 0.857178 8.59179 0.857178 17.9333C0.857178 27.2581 8.60829 35.0091 17.933 35.0091ZM9.76343 17.95C9.76343 17.0796 10.3661 16.4769 11.2366 16.4769H16.4766V11.2369C16.4766 10.3664 17.0626 9.74694 17.9163 9.74694C18.7869 9.74694 19.3896 10.3664 19.3896 11.2369V16.4769H24.6462C25.5 16.4769 26.1195 17.0796 26.1195 17.95C26.1195 18.8039 25.5 19.373 24.6462 19.373H19.3896V24.6297C19.3896 25.5003 18.7869 26.103 17.9163 26.103C17.0626 26.103 16.4766 25.4836 16.4766 24.6297V19.373H11.2366C10.3661 19.373 9.76343 18.8039 9.76343 17.95Z" fill="#FF9500"/>
</svg>
