<svg width="29" height="29" viewBox="0 0 29 29" fill="none" xmlns="http://www.w3.org/2000/svg">
<g clip-path="url(#clip0_70414_47261)">
<path d="M2.01367 14.2254C2.01367 20.7645 7.43945 26.1785 13.9668 26.1785C20.5059 26.1785 25.9199 20.7645 25.9199 14.2254C25.9199 8.45979 21.7129 3.57307 16.2285 2.49495V0.830886C16.2285 -0.00114524 15.6543 -0.223801 15.0215 0.23323L11.2832 2.84651C10.7441 3.22151 10.7324 3.78401 11.2832 4.17073L15.0098 6.79573C15.6543 7.26448 16.2285 7.04182 16.2285 6.19807V4.53401C20.6582 5.54182 23.916 9.47932 23.916 14.2254C23.916 19.7567 19.4981 24.1864 13.9668 24.1864C8.43555 24.1864 3.99414 19.7567 4.00586 14.2254C4.01758 10.8973 5.63476 7.95589 8.13086 6.17464C8.61133 5.81135 8.76367 5.26057 8.4707 4.76839C8.17773 4.28792 7.5332 4.15901 7.01758 4.55745C4.00586 6.74885 2.01367 10.2879 2.01367 14.2254Z" fill="#5856D6"/>
</g>
<defs>
<clipPath id="clip0_70414_47261">
<rect width="23.9062" height="28.4626" fill="white" transform="translate(2.01367)"/>
</clipPath>
</defs>
</svg>
