<svg width="24" height="24" viewBox="0 0 24 24" fill="none" xmlns="http://www.w3.org/2000/svg">
<circle cx="12.0068" cy="12" r="11" fill="#34C759"/>
<path d="M10.9023 16.9363C11.2611 16.9363 11.5396 16.79 11.7378 16.4973L16.8779 8.53931C16.9487 8.43075 16.9983 8.3269 17.0266 8.22778C17.0597 8.12866 17.0762 8.0319 17.0762 7.9375C17.0762 7.69678 16.9959 7.5009 16.8354 7.34985C16.6797 7.19409 16.4791 7.11621 16.2336 7.11621C16.0637 7.11621 15.9221 7.15161 15.8088 7.22241C15.6956 7.28849 15.5846 7.40177 15.4761 7.56226L10.874 14.8831L8.49512 11.8245C8.30632 11.5837 8.07267 11.4634 7.79419 11.4634C7.54403 11.4634 7.3387 11.5436 7.17822 11.7041C7.01774 11.8599 6.9375 12.0581 6.9375 12.2988C6.9375 12.4074 6.95638 12.5136 6.99414 12.6174C7.0319 12.7166 7.09562 12.8204 7.1853 12.929L10.0669 16.5186C10.2935 16.797 10.5719 16.9363 10.9023 16.9363Z" fill="white"/>
</svg>
