<svg width="68" height="32" viewBox="0 0 68 32" fill="none" xmlns="http://www.w3.org/2000/svg">
<rect width="68" height="32" rx="8" fill="url(#paint0_linear_1019_397)"/>
<path d="M26.2891 13.6492C26.2368 13.4949 26.1404 13.3593 26.0118 13.2592C25.8833 13.1591 25.7282 13.0988 25.5658 13.0858L20.815 12.7083L18.7591 8.15751C18.6937 8.01094 18.5872 7.88645 18.4525 7.79906C18.3179 7.71167 18.1608 7.66513 18.0003 7.66504C17.8397 7.66495 17.6826 7.71132 17.5478 7.79856C17.4131 7.8858 17.3064 8.01018 17.2408 8.15668L15.185 12.7083L10.4341 13.0858C10.2745 13.0985 10.1219 13.1569 9.99461 13.254C9.86729 13.3511 9.77064 13.4828 9.71623 13.6334C9.66181 13.784 9.65193 13.947 9.68777 14.1031C9.72361 14.2592 9.80365 14.4016 9.91831 14.5133L13.4291 17.9358L12.1875 23.3125C12.1498 23.4753 12.1619 23.6456 12.2222 23.8014C12.2825 23.9572 12.3882 24.0913 12.5256 24.1862C12.6631 24.2812 12.8259 24.3326 12.993 24.3339C13.16 24.3352 13.3236 24.2862 13.4625 24.1933L18 21.1683L22.5375 24.1933C22.6794 24.2876 22.8468 24.3361 23.0172 24.3324C23.1875 24.3286 23.3526 24.2728 23.4903 24.1725C23.628 24.0721 23.7316 23.9319 23.7873 23.7709C23.8429 23.6099 23.848 23.4356 23.8016 23.2717L22.2775 17.9383L26.0575 14.5367C26.305 14.3133 26.3958 13.965 26.2891 13.6492Z" fill="white"/>
<path d="M33.5273 10.022H38.0513C40.3174 10.022 41.8862 11.6157 41.8862 13.8984C41.8862 16.1396 40.2842 17.7251 38.0347 17.7251H35.0215V22H33.5273V10.022ZM35.0215 11.3501V16.397H37.6611C39.3628 16.397 40.3506 15.4839 40.3506 13.8984C40.3506 12.2549 39.396 11.3501 37.6611 11.3501H35.0215ZM44.1523 22V13.0518H45.5137V14.3799H45.6465C45.9121 13.5083 46.9414 12.894 48.1284 12.894C48.3608 12.894 48.6597 12.9106 48.8423 12.9355V14.3633C48.7261 14.3301 48.2114 14.2803 47.9292 14.2803C46.5679 14.2803 45.5801 15.1934 45.5801 16.4551V22H44.1523ZM54.0552 22.1577C51.5068 22.1577 49.9297 20.3979 49.9297 17.5259C49.9297 14.6455 51.5068 12.894 54.0552 12.894C56.6035 12.894 58.1807 14.6455 58.1807 17.5259C58.1807 20.3979 56.6035 22.1577 54.0552 22.1577ZM54.0552 20.8711C55.7485 20.8711 56.7031 19.6426 56.7031 17.5259C56.7031 15.4009 55.7485 14.1807 54.0552 14.1807C52.3618 14.1807 51.4072 15.4009 51.4072 17.5259C51.4072 19.6426 52.3618 20.8711 54.0552 20.8711Z" fill="white"/>
<defs>
<linearGradient id="paint0_linear_1019_397" x1="34" y1="0" x2="34" y2="32" gradientUnits="userSpaceOnUse">
<stop stop-color="#DC2626"/>
<stop offset="1" stop-color="#761414"/>
</linearGradient>
</defs>
</svg>
